<svg width="27" height="19" viewBox="0 0 27 19" fill="none" xmlns="http://www.w3.org/2000/svg">
<path d="M7.8208 12.3953V3.41866C9.93048 2.36269 11.2479 2.68283 13.622 3.41866C15.9669 2.4619 17.2318 2.63233 19.4538 3.41866V12.3953C17.0219 11.6233 15.7244 11.5818 13.622 12.7617C11.3391 11.7988 10.0661 11.5854 7.8208 12.3953Z" stroke="#ACCE39"/>
<path d="M2.63027 14.3493L1.40732 16.1838C0.964279 16.8483 1.44067 17.7385 2.23937 17.7385H24.993C25.8001 17.7385 26.2747 16.8316 25.8147 16.1685L24.5527 14.3493M2.63027 14.3493V2.85388C2.63027 1.74931 3.5257 0.853882 4.63027 0.853882H22.5527C23.6573 0.853882 24.5527 1.74931 24.5527 2.85388V14.3493M2.63027 14.3493H24.5527" stroke="black"/>
<path d="M8.91992 5.61707C9.50004 5.30157 11.045 4.85986 12.5838 5.61707" stroke="#ACCE39"/>
<path d="M8.91992 8.97559C9.50004 8.66009 11.045 8.21838 12.5838 8.97559" stroke="#ACCE39"/>
<path d="M14.6602 5.60767C15.2403 5.29217 16.7852 4.85046 18.3241 5.60767" stroke="#ACCE39"/>
<path d="M14.6602 8.96631C15.2403 8.65081 16.7852 8.2091 18.3241 8.96631" stroke="#ACCE39"/>
<path d="M13.6221 12.7617V3.4187" stroke="#ACCE39"/>
</svg>
