<svg width="120" height="119" viewBox="0 0 120 119" fill="none" xmlns="http://www.w3.org/2000/svg">
<path opacity="0.7" d="M60 119C92.8609 119 119.5 92.3609 119.5 59.5C119.5 26.6391 92.8609 0 60 0C27.1391 0 0.5 26.6391 0.5 59.5C0.5 92.3609 27.1391 119 60 119Z" fill="white"/>
<path d="M91.7722 42.97L80.8197 86.9426C80.0397 90.2251 77.1147 92.5 73.7347 92.5H31.0297C26.1222 92.5 22.6122 87.6898 24.0747 82.9773L37.7572 39.0377C38.6997 35.9827 41.5273 33.8699 44.7123 33.8699H84.6872C87.7747 33.8699 90.3422 35.7549 91.4147 38.3549C92.0322 39.7524 92.1622 41.345 91.7722 42.97Z" stroke="#292D32" stroke-width="2" stroke-miterlimit="10"/>
<path d="M72.5 92.5H88.035C92.2275 92.5 95.51 88.9575 95.2175 84.765L92 40.5" stroke="#292D32" stroke-width="2" stroke-miterlimit="10" stroke-linecap="round" stroke-linejoin="round"/>
<path d="M51.96 41.7351L55.34 27.6953" stroke="#ACCE39" stroke-width="2" stroke-miterlimit="10" stroke-linecap="round" stroke-linejoin="round"/>
<path d="M73.7349 41.7675L76.7899 27.6626" stroke="#ACCE39" stroke-width="2" stroke-miterlimit="10" stroke-linecap="round" stroke-linejoin="round"/>
<path d="M45.5249 60H71.5249" stroke="#ACCE39" stroke-width="2" stroke-miterlimit="10" stroke-linecap="round" stroke-linejoin="round"/>
<path d="M42.2749 73H68.2749" stroke="#292D32" stroke-width="2" stroke-miterlimit="10" stroke-linecap="round" stroke-linejoin="round"/>
</svg>
