<svg width="24" height="24" viewBox="0 0 24 24" fill="none" xmlns="http://www.w3.org/2000/svg">
<g clip-path="url(#clip0_1369_3935)">
<path d="M18.3638 5.63648C16.7697 4.04613 14.6367 3.11201 12.3869 3.01892C10.137 2.92583 7.93418 3.68056 6.21414 5.1338C4.49409 6.58703 3.38214 8.63292 3.09824 10.8667C2.81435 13.1005 3.37919 15.3595 4.68104 17.1968C5.98289 19.0341 7.9269 20.3158 10.1285 20.7885C12.3301 21.2611 14.6289 20.8903 16.5702 19.7492C18.5114 18.6082 19.9537 16.7801 20.6117 14.6266C21.2697 12.4731 21.0954 10.1511 20.1235 8.11992" stroke="white" stroke-linecap="round" stroke-linejoin="round"/>
<path d="M15.1819 8.81805C14.4375 8.07455 13.4561 7.61538 12.4083 7.52035C11.3605 7.42532 10.3125 7.70044 9.44649 8.29788C8.58047 8.89532 7.95117 9.77732 7.66795 10.7906C7.38473 11.8039 7.4655 12.8843 7.89622 13.8442C8.32694 14.8041 9.08039 15.5828 10.0256 16.0448C10.9708 16.5068 12.0481 16.6231 13.0701 16.3733C14.0921 16.1236 14.9943 15.5236 15.6199 14.6777C16.2455 13.8318 16.5549 12.7934 16.4944 11.743" stroke="white" stroke-linecap="round" stroke-linejoin="round"/>
<path d="M12 12L21 3" stroke="white" stroke-width="1.5" stroke-linecap="round" stroke-linejoin="round"/>
</g>
<defs>
<clipPath id="clip0_1369_3935">
<rect width="24" height="24" fill="white"/>
</clipPath>
</defs>
</svg>
