<svg width="58" height="64" viewBox="0 0 58 64" fill="none" xmlns="http://www.w3.org/2000/svg">
<path d="M6.9556 61.0585C6.9556 62.1653 7.85284 63.0625 8.95959 63.0625H55.0522C56.1591 63.0625 57.0563 62.1653 57.0563 61.0585V11.7879C57.0563 11.2564 56.8451 10.7467 56.4693 10.3708L47.6228 1.52468C47.247 1.14883 46.7373 0.937684 46.2057 0.937681H8.95959C7.85284 0.937681 6.9556 1.83493 6.9556 2.94167V35.0065" stroke="#132A3A" stroke-width="1.5" stroke-miterlimit="10" stroke-linecap="round" stroke-linejoin="round"/>
<path d="M46.0341 0.937625V10.9577C46.0341 11.2235 46.1397 11.4783 46.3276 11.6662C46.5155 11.8541 46.7704 11.9597 47.0361 11.9597H57.0562" stroke="#132A3A" stroke-width="1.5" stroke-miterlimit="10" stroke-linecap="round" stroke-linejoin="round"/>
<path d="M29.7965 44.0536H26.5714V52.011" stroke="#ACCE39" stroke-width="1.5" stroke-miterlimit="10" stroke-linecap="round" stroke-linejoin="round"/>
<path d="M26.5713 47.957H29.5402" stroke="#ACCE39" stroke-width="1.5" stroke-miterlimit="10" stroke-linecap="round" stroke-linejoin="round"/>
<path d="M17.3622 44.1508V51.7954" stroke="#ACCE39" stroke-width="1.5" stroke-miterlimit="10" stroke-linecap="round" stroke-linejoin="round"/>
<path d="M22.7067 48.0324C22.7067 50.1758 21.5171 51.8718 19.6297 51.9048C19.0014 51.9158 17.3779 51.9219 17.3779 51.9219C17.3779 51.9219 17.3678 49.1043 17.3678 48.0238C17.3678 47.1365 17.3621 44.1429 17.3621 44.1429H19.5653C21.6354 44.1429 22.7067 45.889 22.7067 48.0324Z" stroke="#ACCE39" stroke-width="1.5" stroke-miterlimit="10" stroke-linecap="round" stroke-linejoin="round"/>
<path d="M8.93059 44.0242V52.0403" stroke="#ACCE39" stroke-width="1.5" stroke-miterlimit="10" stroke-linecap="round" stroke-linejoin="round"/>
<path d="M13.4691 46.2862C13.4691 47.5356 12.412 48.5483 11.1626 48.5483C10.543 48.5483 8.94609 48.5583 8.94609 48.5583C8.94609 48.5583 8.93609 46.916 8.93609 46.2862C8.93609 45.769 8.93059 44.0241 8.93059 44.0241H11.1626C12.412 44.0241 13.4691 45.0369 13.4691 46.2862Z" stroke="#ACCE39" stroke-width="1.5" stroke-miterlimit="10" stroke-linecap="round" stroke-linejoin="round"/>
<path d="M20.8322 33.129C17.5157 28.0089 45.1515 23.2738 43.6022 28.0012C41.2214 35.2657 23.2162 10.7915 31.0268 11.2136C35.5441 11.4579 24.3118 38.501 20.8322 33.129Z" stroke="#ACCE39" stroke-width="1.5" stroke-miterlimit="10" stroke-linecap="round" stroke-linejoin="round"/>
<path d="M0.943489 36.0082V54.0444C0.943489 55.7047 2.28936 57.0505 3.94948 57.0505H35.0119C36.1188 57.0505 37.016 56.1533 37.016 55.0464V41.0183C37.016 39.9115 36.1188 39.0142 35.0119 39.0142H3.94948C2.28936 39.0142 0.943489 37.6685 0.943489 36.0082ZM0.943489 36.0082C0.943489 34.3481 2.28936 33.0022 3.94948 33.0022H6.9556" stroke="#132A3A" stroke-width="1.5" stroke-miterlimit="10" stroke-linecap="round" stroke-linejoin="round"/>
</svg>
