<svg width="60" height="58" viewBox="0 0 60 58" fill="none" xmlns="http://www.w3.org/2000/svg">
<path d="M26.25 55.3751C26.0179 55.3751 25.7954 55.4673 25.6313 55.6314C25.4672 55.7955 25.375 56.018 25.375 56.2501C25.375 56.4822 25.4672 56.7047 25.6313 56.8688C25.7954 57.0329 26.0179 57.1251 26.25 57.1251H33C33.2321 57.1251 33.4546 57.0329 33.6187 56.8688C33.7828 56.7047 33.875 56.4822 33.875 56.2501C33.875 56.018 33.7828 55.7955 33.6187 55.6314C33.4546 55.4673 33.2321 55.3751 33 55.3751H26.25ZM36.375 50.2501C36.375 50.018 36.2828 49.7955 36.1187 49.6314C35.9546 49.4673 35.7321 49.3751 35.5 49.3751H23.75C23.5179 49.3751 23.2954 49.4673 23.1313 49.6314C22.9672 49.7955 22.875 50.018 22.875 50.2501C22.875 50.4822 22.9672 50.7047 23.1313 50.8688C23.2954 51.0329 23.5179 51.1251 23.75 51.1251H35.5C35.7321 51.1251 35.9546 51.0329 36.1187 50.8688C36.2828 50.7047 36.375 50.4822 36.375 50.2501ZM35.125 53.2501C35.125 53.018 35.0328 52.7955 34.8687 52.6314C34.7046 52.4673 34.4821 52.3751 34.25 52.3751H25C24.7679 52.3751 24.5454 52.4673 24.3813 52.6314C24.2172 52.7955 24.125 53.018 24.125 53.2501C24.125 53.4822 24.2172 53.7047 24.3813 53.8688C24.5454 54.0329 24.7679 54.1251 25 54.1251H34.25C34.4821 54.1251 34.7046 54.0329 34.8687 53.8688C35.0328 53.7047 35.125 53.4822 35.125 53.2501ZM38.8519 38.4882C39.166 37.5816 39.7685 36.517 40.4061 35.3899C41.771 32.9774 43.3186 30.2427 43.3186 27.1465C43.3198 25.3554 42.9626 23.5823 42.268 21.9314C41.5734 20.2805 40.5555 18.7854 39.2741 17.534C36.7081 14.9858 33.2376 13.5571 29.6212 13.5601C26.0049 13.5631 22.5368 14.9976 19.975 17.5501C18.6941 18.8049 17.6766 20.3027 16.9823 21.9559C16.2879 23.6091 15.9306 25.3843 15.9314 27.1774C15.9314 30.2579 17.4739 32.9731 18.8349 35.3687C19.4795 36.5036 20.0884 37.5755 20.3955 38.4824C20.9557 40.1585 21.3711 41.8796 21.6373 43.6267C21.6716 46.0612 23.6537 48.1251 25.9965 48.1251H33.2534C35.5958 48.1251 37.5784 46.0616 37.6123 43.6271C37.875 41.8813 38.2898 40.1618 38.8519 38.4882ZM35.8703 43.4294C35.8652 43.4737 35.8627 43.5183 35.8626 43.563C35.8626 45.0511 34.6435 46.3755 33.2534 46.3755H25.9965C24.6065 46.3755 23.3873 45.0515 23.3873 43.563C23.3872 43.5221 23.3848 43.4813 23.3799 43.4407C23.1029 41.5664 22.659 39.7205 22.0535 37.9251C21.6929 36.8604 21.044 35.7156 20.3569 34.5062C19.103 32.299 17.6819 29.7961 17.6819 27.178C17.6818 25.6162 17.9936 24.07 18.5989 22.6303C19.2042 21.1905 20.0909 19.8861 21.2069 18.7935C23.4413 16.5655 26.4672 15.3132 29.6226 15.3105C32.778 15.3078 35.8061 16.5549 38.0444 18.779C39.1603 19.8681 40.0469 21.1694 40.6521 22.6065C41.2573 24.0435 41.5688 25.5871 41.5682 27.1464C41.5682 29.7819 40.1418 32.3032 38.8831 34.5279C38.2051 35.7262 37.5648 36.8581 37.1985 37.9154C36.5905 39.7096 36.1459 41.5551 35.8703 43.4294ZM28.75 1.79248V10.9517C28.75 11.1838 28.8422 11.4064 29.0063 11.5704C29.1704 11.7345 29.3929 11.8267 29.625 11.8267C29.8571 11.8267 30.0796 11.7345 30.2437 11.5704C30.4078 11.4064 30.5 11.1838 30.5 10.9517V1.79248C30.5 1.56042 30.4078 1.33786 30.2437 1.17376C30.0796 1.00967 29.8571 0.91748 29.625 0.91748C29.3929 0.91748 29.1704 1.00967 29.0063 1.17376C28.8422 1.33786 28.75 1.56042 28.75 1.79248ZM18.553 14.7145C18.7064 14.7143 18.8571 14.6738 18.9899 14.5971C19.1227 14.5203 19.233 14.41 19.3098 14.2771C19.3865 14.1443 19.427 13.9936 19.4271 13.8402C19.4272 13.6868 19.387 13.5361 19.3105 13.4031L15.7386 7.19323C15.682 7.09236 15.6059 7.00372 15.5148 6.93244C15.4237 6.86116 15.3194 6.80865 15.2079 6.77794C15.0963 6.74724 14.9798 6.73896 14.8651 6.75357C14.7503 6.76818 14.6396 6.8054 14.5394 6.86308C14.4391 6.92076 14.3512 6.99774 14.2809 7.08958C14.2106 7.18142 14.1592 7.2863 14.1296 7.39814C14.1001 7.50998 14.093 7.62657 14.1088 7.74116C14.1247 7.85575 14.163 7.96607 14.2218 8.06573L17.7938 14.2757C17.8705 14.4092 17.9811 14.52 18.1144 14.5971C18.2478 14.6741 18.399 14.7146 18.553 14.7145ZM4.05 19.1231L10.2365 22.7085C10.4373 22.8248 10.6761 22.8566 10.9004 22.7969C11.1246 22.7372 11.316 22.5908 11.4323 22.39C11.5487 22.1892 11.5805 21.9504 11.5208 21.7262C11.461 21.5019 11.3147 21.3106 11.1139 21.1942L4.92688 17.609C4.82736 17.5489 4.71686 17.5093 4.60185 17.4924C4.48684 17.4755 4.36961 17.4816 4.25702 17.5106C4.14442 17.5395 4.03872 17.5905 3.94608 17.6607C3.85344 17.731 3.77572 17.819 3.71746 17.9195C3.6592 18.0201 3.62157 18.1313 3.60677 18.2466C3.59197 18.3619 3.60029 18.479 3.63125 18.5911C3.66221 18.7031 3.71518 18.8079 3.78708 18.8992C3.85898 18.9906 3.94836 19.0667 4.05 19.1231ZM44.9294 6.87098C44.7282 6.75532 44.4894 6.72429 44.2653 6.78472C44.0413 6.84515 43.8504 6.9921 43.7347 7.19323L40.1625 13.4031C40.1044 13.5027 40.0665 13.6129 40.0511 13.7272C40.0357 13.8415 40.043 13.9578 40.0727 14.0693C40.1024 14.1807 40.1539 14.2852 40.2241 14.3768C40.2943 14.4683 40.3819 14.545 40.4819 14.6025C40.5819 14.6601 40.6923 14.6972 40.8067 14.7119C40.9211 14.7266 41.0373 14.7186 41.1486 14.6882C41.2599 14.6578 41.3641 14.6058 41.4552 14.535C41.5463 14.4642 41.6225 14.3761 41.6794 14.2757L45.2513 8.06573C45.367 7.86461 45.3981 7.62575 45.3377 7.4017C45.2774 7.17765 45.1305 6.98674 44.9294 6.87098ZM48.9016 22.8265C49.0553 22.8264 49.2062 22.7857 49.3391 22.7085L55.5257 19.1231C55.7249 19.0059 55.8696 18.8147 55.9283 18.5913C55.987 18.3678 55.9549 18.1302 55.8391 17.9303C55.7232 17.7304 55.533 17.5844 55.3099 17.5242C55.0869 17.464 54.8491 17.4945 54.6484 17.609L48.4625 21.1942C48.2958 21.2907 48.1656 21.4396 48.0921 21.6176C48.0186 21.7957 48.0059 21.993 48.056 22.179C48.1061 22.365 48.2162 22.5293 48.3692 22.6464C48.5222 22.7634 48.709 22.8267 48.9016 22.8265ZM48.375 33.1251C48.375 33.3572 48.4672 33.5797 48.6313 33.7438C48.7954 33.9079 49.0179 34.0001 49.25 34.0001H58.375C58.6071 34.0001 58.8296 33.9079 58.9937 33.7438C59.1578 33.5797 59.25 33.3572 59.25 33.1251C59.25 32.893 59.1578 32.6705 58.9937 32.5064C58.8296 32.3423 58.6071 32.2501 58.375 32.2501H49.25C49.0179 32.2501 48.7954 32.3423 48.6313 32.5064C48.4672 32.6705 48.375 32.893 48.375 33.1251ZM0.875 34.0001H10C10.2321 34.0001 10.4546 33.9079 10.6187 33.7438C10.7828 33.5797 10.875 33.3572 10.875 33.1251C10.875 32.893 10.7828 32.6705 10.6187 32.5064C10.4546 32.3423 10.2321 32.2501 10 32.2501H0.875C0.642936 32.2501 0.420376 32.3423 0.256282 32.5064C0.0921873 32.6705 0 32.893 0 33.1251C0 33.3572 0.0921873 33.5797 0.256282 33.7438C0.420376 33.9079 0.642936 34.0001 0.875 34.0001Z" fill="#132A3A"/>
<path d="M30.6271 20.0119C30.0347 19.9677 29.4396 20.0472 28.8796 20.2454C28.3195 20.4436 27.8069 20.7562 27.3741 21.1632C26.9414 21.5682 26.5962 22.0576 26.3599 22.6012C26.1235 23.1447 26.001 23.7309 26 24.3236C26 24.7854 26.3748 25.1602 26.8365 25.1602C27.299 25.1602 27.6731 24.7854 27.6731 24.3236C27.6731 23.9597 27.7481 23.5997 27.8933 23.2661C28.0386 22.9324 28.251 22.6323 28.5173 22.3843C28.7837 22.1364 29.0983 21.946 29.4416 21.825C29.7848 21.7041 30.1493 21.6551 30.5123 21.6812C31.0777 21.7215 31.6152 21.9421 32.0459 22.3106C32.4766 22.6792 32.7777 23.1761 32.905 23.7285C33.0323 24.2809 32.979 24.8595 32.753 25.3793C32.527 25.8992 32.1402 26.3328 31.6494 26.6164C30.9861 27.01 30.4373 27.5704 30.0577 28.2418C29.6781 28.9132 29.4808 29.6723 29.4856 30.4436V31.9563C29.4856 32.4188 29.8603 32.7928 30.3221 32.7928C30.7846 32.7928 31.1586 32.4188 31.1586 31.9563V30.4436C31.1536 29.9654 31.2737 29.4943 31.5071 29.077C31.7405 28.6596 32.0791 28.3106 32.4891 28.0646C33.2896 27.6011 33.9203 26.893 34.2885 26.0444C34.6567 25.1959 34.743 24.2516 34.5347 23.3503C34.1067 21.5002 32.5213 20.1458 30.6271 20.0124V20.0119ZM30.3221 34.4944C29.5395 34.4944 28.905 35.1287 28.905 35.9114C28.905 36.6946 29.5394 37.3291 30.3221 37.3291C31.1052 37.3291 31.7397 36.6947 31.7397 35.9114C31.7392 35.1289 31.1048 34.4949 30.3221 34.4944ZM30.3221 36.1674C30.1811 36.1669 30.0667 36.0525 30.0667 35.9114C30.0667 35.7703 30.1816 35.656 30.3226 35.656C30.4637 35.656 30.5781 35.7703 30.5781 35.9114C30.5781 36.0525 30.4637 36.1669 30.3221 36.1674Z" fill="#ACCE39"/>
</svg>
