<svg width="32" height="32" viewBox="0 0 32 32" fill="none" xmlns="http://www.w3.org/2000/svg">
<g clip-path="url(#clip0_1201_3647)">
<path d="M24.485 7.51499C22.3595 5.39451 19.5156 4.14902 16.5158 4.0249C13.516 3.90079 10.5789 4.90709 8.28551 6.84474C5.99212 8.78239 4.5095 11.5102 4.13098 14.4886C3.75245 17.467 4.50558 20.479 6.24138 22.9287C7.97717 25.3785 10.5692 27.0875 13.5047 27.7177C16.4401 28.3479 19.5052 27.8533 22.0935 26.332C24.6819 24.8106 26.6049 22.3731 27.4822 19.5018C28.3596 16.6305 28.1272 13.5345 26.8313 10.8262" stroke="#132A3A" stroke-width="1.5" stroke-linecap="round" stroke-linejoin="round"/>
<path d="M20.2425 11.7577C19.25 10.7664 17.9415 10.1542 16.5444 10.0275C15.1473 9.90076 13.75 10.2676 12.5953 11.0642C11.4406 11.8608 10.6016 13.0368 10.2239 14.3878C9.8463 15.7388 9.954 17.1794 10.5283 18.4593C11.1026 19.7392 12.1072 20.7773 13.3675 21.3934C14.6278 22.0094 16.0641 22.1644 17.4268 21.8314C18.7895 21.4984 19.9924 20.6985 20.8265 19.5706C21.6607 18.4427 22.0732 17.0582 21.9925 15.6577" stroke="#132A3A" stroke-width="1.5" stroke-linecap="round" stroke-linejoin="round"/>
<path d="M16 16L28 4" stroke="#ACCE39" stroke-width="1.5" stroke-linecap="round" stroke-linejoin="round"/>
</g>
<defs>
<clipPath id="clip0_1201_3647">
<rect width="32" height="32" fill="white"/>
</clipPath>
</defs>
</svg>
