<svg width="62" height="56" viewBox="0 0 62 56" fill="none" xmlns="http://www.w3.org/2000/svg">
<path d="M3.5 44.5575H58.5C59.3617 44.5565 60.1878 44.2138 60.797 43.6045C61.4063 42.9953 61.749 42.1692 61.75 41.3075V4.10425C61.749 3.2426 61.4063 2.41653 60.797 1.80725C60.1877 1.19797 59.3616 0.855241 58.5 0.854248H3.5C2.63835 0.855241 1.81228 1.19797 1.203 1.80725C0.593721 2.41653 0.250992 3.2426 0.25 4.10425V41.3075C0.250959 42.1692 0.593677 42.9953 1.20296 43.6045C1.81225 44.2138 2.63834 44.5565 3.5 44.5575ZM1.75 4.10425C1.75053 3.64028 1.93507 3.19547 2.26315 2.8674C2.59122 2.53932 3.03603 2.35478 3.5 2.35425H58.5C58.964 2.35478 59.4088 2.53932 59.7369 2.8674C60.0649 3.19547 60.2495 3.64028 60.25 4.10425V41.3075C60.2495 41.7715 60.065 42.2163 59.7369 42.5444C59.4088 42.8725 58.964 43.057 58.5 43.0575H3.5C3.03602 43.057 2.59119 42.8725 2.26311 42.5444C1.93503 42.2163 1.7505 41.7715 1.75 41.3075V4.10425Z" fill="#132A3A"/>
<path d="M21.0363 32.219C21.2907 32.3951 21.5841 32.5069 21.8913 32.5448C22.1984 32.5827 22.5102 32.5456 22.7999 32.4366L22.8213 32.4285L40.5726 24.4833C40.9303 24.3436 41.2375 24.0992 41.454 23.7822C41.6706 23.4651 41.7864 23.09 41.7864 22.706C41.7864 22.3221 41.6706 21.947 41.454 21.6299C41.2375 21.3128 40.9303 21.0684 40.5726 20.9287L22.8421 12.9928L22.7999 12.9755C22.5107 12.8664 22.1994 12.8291 21.8926 12.8668C21.5859 12.9044 21.2928 13.0158 21.0385 13.1915C20.7843 13.3672 20.5764 13.6019 20.4327 13.8755C20.289 14.1492 20.2138 14.4535 20.2135 14.7626V30.6501C20.2137 30.9586 20.2886 31.2625 20.4319 31.5357C20.5752 31.809 20.7825 32.0434 21.0363 32.219ZM21.7135 14.7626C21.7128 14.6964 21.7286 14.6311 21.7594 14.5725C21.7902 14.5139 21.8351 14.4638 21.89 14.4268C21.9592 14.3791 22.0411 14.3532 22.1251 14.3525C22.1694 14.3526 22.2133 14.3599 22.2553 14.3741L39.9781 22.3065L40.0204 22.3238C40.0985 22.3528 40.1659 22.405 40.2134 22.4734C40.261 22.5418 40.2865 22.6232 40.2865 22.7065C40.2865 22.7898 40.261 22.8711 40.2134 22.9395C40.1659 23.0079 40.0985 23.0601 40.0204 23.0891L39.999 23.0972L22.2553 31.039C22.1945 31.0592 22.1298 31.0649 22.0664 31.0557C22.003 31.0466 21.9426 31.0227 21.89 30.9861C21.8351 30.9492 21.7902 30.8992 21.7594 30.8406C21.7285 30.782 21.7128 30.7167 21.7135 30.6505V14.7626ZM60.68 51.7802C60.68 51.5813 60.601 51.3905 60.4603 51.2499C60.3197 51.1092 60.1289 51.0302 59.93 51.0302H11.9098V48.9902C11.9098 48.7913 11.8307 48.6005 11.6901 48.4599C11.5494 48.3192 11.3587 48.2402 11.1598 48.2402C10.9608 48.2402 10.7701 48.3192 10.6294 48.4599C10.4888 48.6005 10.4098 48.7913 10.4098 48.9902V51.0302H2.07001C1.87109 51.0302 1.68033 51.1092 1.53968 51.2499C1.39903 51.3905 1.32001 51.5813 1.32001 51.7802C1.32001 51.9791 1.39903 52.1699 1.53968 52.3106C1.68033 52.4512 1.87109 52.5302 2.07001 52.5302H10.4098V54.3958C10.4098 54.5948 10.4888 54.7855 10.6294 54.9262C10.7701 55.0668 10.9608 55.1458 11.1598 55.1458C11.3587 55.1458 11.5494 55.0668 11.6901 54.9262C11.8307 54.7855 11.9098 54.5948 11.9098 54.3958V52.5302H59.93C60.1289 52.5302 60.3197 52.4512 60.4603 52.3106C60.601 52.1699 60.68 51.9791 60.68 51.7802Z" fill="#ACCE39"/>
</svg>
