<svg width="56" height="64" viewBox="0 0 56 64" fill="none" xmlns="http://www.w3.org/2000/svg">
<path d="M35.3709 47.6738C35.3015 47.5925 35.2167 47.5257 35.1214 47.4772C35.0262 47.4286 34.9223 47.3993 34.8157 47.391C34.7091 47.3826 34.6019 47.3953 34.5002 47.4284C34.3985 47.4614 34.3044 47.5142 34.2231 47.5837C34.1417 47.6531 34.0749 47.7379 34.0263 47.8331C33.9777 47.9284 33.9484 48.0323 33.94 48.1388C33.9316 48.2454 33.9442 48.3526 33.9772 48.4543C34.0103 48.556 34.063 48.6502 34.1324 48.7316L37.3899 52.5458C37.528 52.7074 37.7238 52.8086 37.9355 52.8278C38.1472 52.847 38.358 52.7827 38.5229 52.6485L46.1104 46.4767C46.2227 46.3869 46.3092 46.2689 46.3611 46.1348C46.4131 46.0007 46.4287 45.8553 46.4062 45.7132C46.3838 45.5712 46.3243 45.4377 46.2335 45.3262C46.1428 45.2147 46.0241 45.1292 45.8897 45.0784C45.7552 45.0276 45.6096 45.0133 45.4678 45.037C45.326 45.0607 45.193 45.1215 45.0824 45.2132L38.113 50.8831L35.3709 47.6738Z" fill="#ACCE39"/>
<path d="M2.14632 51.6401C2.73277 52.2242 3.42863 52.6869 4.19409 53.0018C4.95955 53.3167 5.77959 53.4775 6.60728 53.4752H6.6385L25.772 53.3668C28.0188 60.6627 35.3673 65.1259 42.8777 63.7554C50.388 62.3843 55.6861 55.6133 55.2105 47.9934C54.7344 40.3742 48.6345 34.3148 41.012 33.889L40.9082 14.9333L40.9071 14.6998C40.906 14.4835 40.8191 14.2765 40.6654 14.1242L26.6398 0.262366C26.5064 0.130332 26.3314 0.0485218 26.1446 0.030815L25.853 0.00366946C25.8259 0.0011359 25.7986 -8.70626e-05 25.7713 4.81533e-06L6.38089 0.0933853C2.88007 0.110351 0.0562565 2.96158 0.0722724 6.4624L0.267856 47.1664C0.269752 47.9992 0.436745 48.8234 0.759177 49.5913C1.08161 50.3591 1.55308 51.0555 2.14632 51.64V51.6401ZM53.6109 48.9309C53.6109 56.3519 47.5948 62.3679 40.1739 62.3679C32.7529 62.3679 26.7369 56.3519 26.7369 48.9309C26.7369 41.5098 32.7529 35.4938 40.1739 35.4938C47.5912 35.5022 53.6024 41.5135 53.6109 48.9309ZM38.1491 13.9274L31.6262 13.9593C29.0246 13.9715 26.9055 11.8725 26.8932 9.27087L26.862 2.77183L38.1491 13.9274ZM3.06506 3.11699C3.49933 2.67598 4.01678 2.32552 4.58744 2.08589C5.15811 1.84627 5.77064 1.72226 6.38957 1.72103L25.2276 1.63091L25.2647 9.27874C25.2811 12.7679 28.1138 15.5874 31.6031 15.588H31.6343L39.2827 15.5514L39.3834 33.8857C37.2368 33.9995 35.1394 34.5711 33.2319 35.5621C31.3244 36.5532 29.6509 37.9408 28.3238 39.6319C26.9965 41.3228 26.0464 43.2781 25.5371 45.3665C25.0278 47.455 24.9713 49.6282 25.3712 51.7403L6.63022 51.8463H6.60687C4.01434 51.8457 1.91002 49.7511 1.89713 47.1584L1.70114 6.45453C1.6966 5.83566 1.81482 5.22204 2.04896 4.64916C2.28309 4.07628 2.62837 3.55552 3.06506 3.11699Z" fill="#132A3A"/>
<path d="M22.5107 30.0664H19.749C19.2994 30.0664 18.9346 30.4306 18.9346 30.8808C18.9346 31.3303 19.2994 31.6952 19.749 31.6952H22.5107C22.9603 31.6952 23.3251 31.3303 23.3251 30.8808C23.3251 30.4306 22.9603 30.0664 22.5107 30.0664ZM9.10181 24.7884H32.0317C32.482 24.7884 32.8461 24.4241 32.8461 23.974C32.8461 23.5244 32.482 23.1597 32.0317 23.1597H9.10181C8.65214 23.1597 8.28745 23.5244 8.28745 23.974C8.28745 24.4241 8.65214 24.7884 9.10181 24.7884ZM9.10181 31.6952H16.2492C16.6989 31.6952 17.0636 31.3303 17.0636 30.8808C17.0636 30.4306 16.6989 30.0664 16.2492 30.0664H9.10181C8.65214 30.0664 8.28745 30.4306 8.28745 30.8808C8.28745 31.3303 8.65214 31.6952 9.10181 31.6952Z" fill="#ACCE39"/>
</svg>
